<mxfile host="app.diagrams.net" modified="2021-10-07T18:09:29.637Z" agent="5.0 (Windows NT 10.0; Win64; x64) AppleWebKit/537.36 (KHTML, like Gecko) Chrome/94.0.4606.71 Safari/537.36" etag="jsNkhgCORFm8I4CZqnTb" version="15.4.3" type="github">
  <diagram id="kI2vQrZrzZ44r8eud-3I" name="Page-1">
    <mxGraphModel dx="1730" dy="965" grid="1" gridSize="10" guides="1" tooltips="1" connect="1" arrows="1" fold="1" page="1" pageScale="1" pageWidth="827" pageHeight="1169" math="0" shadow="0">
      <root>
        <mxCell id="0" />
        <mxCell id="1" parent="0" />
        <UserObject label="Start" lucidchartObjectId="id5fOvrKopN_" id="xrCMUuAX0U-HE9B3E3C9-1">
          <mxCell style="html=1;overflow=block;blockSpacing=1;whiteSpace=wrap;rounded=1;arcSize=50;whiteSpace=wrap;fontSize=21.7;fontFamily=Liberation Serif;fontColor=#333333;fontStyle=1;spacing=3.8;strokeColor=#5e5e5e;strokeOpacity=100;strokeWidth=2.3;" vertex="1" parent="1">
            <mxGeometry x="421" y="15" width="119" height="60" as="geometry" />
          </mxCell>
        </UserObject>
        <UserObject label="MA4830 Flow Chart" lucidchartObjectId="yd5fB~VPbJ2A" id="xrCMUuAX0U-HE9B3E3C9-2">
          <mxCell style="html=1;overflow=block;blockSpacing=1;whiteSpace=wrap;;whiteSpace=wrap;fontSize=21.7;fontFamily=Liberation Serif;fontColor=#333333;fontStyle=1;spacing=3.8;strokeOpacity=0;fillOpacity=0;rounded=1;absoluteArcSize=1;arcSize=9;fillColor=#ffffff;strokeWidth=2.3;" vertex="1" parent="1">
            <mxGeometry x="30" y="15" width="180" height="60" as="geometry" />
          </mxCell>
        </UserObject>
        <UserObject label="" lucidchartObjectId="ie5f6CUvp5D4" id="xrCMUuAX0U-HE9B3E3C9-3">
          <mxCell style="html=1;jettySize=18;whiteSpace=wrap;fontSize=13;strokeColor=#5E5E5E;strokeWidth=1.5;rounded=1;arcSize=12;edgeStyle=orthogonalEdgeStyle;startArrow=none;;endArrow=block;endFill=1;;exitX=0.49;exitY=1.019;exitPerimeter=0;entryX=0.5;entryY=-0.011;entryPerimeter=0;" edge="1" parent="1" source="xrCMUuAX0U-HE9B3E3C9-1" target="xrCMUuAX0U-HE9B3E3C9-5">
            <mxGeometry width="100" height="100" relative="1" as="geometry">
              <Array as="points" />
            </mxGeometry>
          </mxCell>
        </UserObject>
        <UserObject label="Display Title" lucidchartObjectId="2f5fBzPkaYoD" id="xrCMUuAX0U-HE9B3E3C9-4">
          <mxCell style="html=1;overflow=block;blockSpacing=1;whiteSpace=wrap;shape=parallelogram;perimeter=parallelogramPerimeter;anchorPointDirection=0;whiteSpace=wrap;fontSize=21.7;fontFamily=Liberation Serif;fontColor=#333333;fontStyle=1;spacing=3.8;strokeColor=#5e5e5e;strokeOpacity=100;rounded=1;absoluteArcSize=1;arcSize=9;strokeWidth=2.3;" vertex="1" parent="1">
            <mxGeometry x="420" y="233" width="120" height="90" as="geometry" />
          </mxCell>
        </UserObject>
        <UserObject label="Declare Variables&#xa;Include Libraries" lucidchartObjectId="0g5fbqkDcxdL" id="xrCMUuAX0U-HE9B3E3C9-5">
          <mxCell style="html=1;overflow=block;blockSpacing=1;whiteSpace=wrap;;whiteSpace=wrap;fontSize=21.7;fontFamily=Liberation Serif;fontColor=#333333;fontStyle=1;spacing=9;strokeColor=#5e5e5e;strokeOpacity=100;rounded=1;absoluteArcSize=1;arcSize=9;strokeWidth=2.3;" vertex="1" parent="1">
            <mxGeometry x="374" y="105" width="210" height="98" as="geometry" />
          </mxCell>
        </UserObject>
        <UserObject label="" lucidchartObjectId="th5fEdYgW_a2" id="xrCMUuAX0U-HE9B3E3C9-6">
          <mxCell style="html=1;jettySize=18;whiteSpace=wrap;fontSize=13;strokeColor=#5E5E5E;strokeWidth=1.5;rounded=1;arcSize=12;edgeStyle=orthogonalEdgeStyle;startArrow=none;;endArrow=block;endFill=1;;exitX=0.5;exitY=1.011;exitPerimeter=0;entryX=0.5;entryY=-0.012;entryPerimeter=0;" edge="1" parent="1" source="xrCMUuAX0U-HE9B3E3C9-5" target="xrCMUuAX0U-HE9B3E3C9-4">
            <mxGeometry width="100" height="100" relative="1" as="geometry">
              <Array as="points" />
            </mxGeometry>
          </mxCell>
        </UserObject>
        <UserObject label="&lt;blockquote style=&quot;margin: 0 0 0 40px ; border: none ; padding: 0px&quot;&gt;Input Dimension Selection:&lt;br&gt;1) 2D&lt;br&gt;2) 3D&lt;/blockquote&gt;" lucidchartObjectId="un5fELaJod.b" id="xrCMUuAX0U-HE9B3E3C9-7">
          <mxCell style="html=1;overflow=block;blockSpacing=1;whiteSpace=wrap;shape=parallelogram;perimeter=parallelogramPerimeter;anchorPointDirection=0;whiteSpace=wrap;fontSize=21.7;fontFamily=Liberation Serif;fontColor=#333333;fontStyle=1;align=left;spacing=3.8;verticalAlign=middle;strokeColor=#5e5e5e;strokeOpacity=100;rounded=1;absoluteArcSize=1;arcSize=9;strokeWidth=2.3;" vertex="1" parent="1">
            <mxGeometry x="354" y="400" width="250" height="120" as="geometry" />
          </mxCell>
        </UserObject>
        <UserObject label="Dimension Selection Decision" lucidchartObjectId="Sp5fUQeobjtO" id="xrCMUuAX0U-HE9B3E3C9-8">
          <mxCell style="html=1;overflow=block;blockSpacing=1;whiteSpace=wrap;rhombus;whiteSpace=wrap;fontSize=21.7;fontFamily=Liberation Serif;fontColor=#333333;fontStyle=1;spacing=3.8;strokeColor=#5e5e5e;strokeOpacity=100;rounded=1;absoluteArcSize=1;arcSize=9;strokeWidth=2.3;" vertex="1" parent="1">
            <mxGeometry x="354" y="570" width="255" height="136" as="geometry" />
          </mxCell>
        </UserObject>
        <UserObject label="" lucidchartObjectId="gq5fBh49dih0" id="xrCMUuAX0U-HE9B3E3C9-9">
          <mxCell style="html=1;jettySize=18;whiteSpace=wrap;fontSize=13;strokeColor=#5E5E5E;strokeWidth=1.5;rounded=1;arcSize=12;edgeStyle=orthogonalEdgeStyle;startArrow=none;;endArrow=block;endFill=1;;exitX=0.501;exitY=1.01;exitPerimeter=0;entryX=0.489;entryY=0.003;entryPerimeter=0;" edge="1" parent="1" source="xrCMUuAX0U-HE9B3E3C9-7" target="xrCMUuAX0U-HE9B3E3C9-8">
            <mxGeometry width="100" height="100" relative="1" as="geometry">
              <Array as="points" />
            </mxGeometry>
          </mxCell>
        </UserObject>
        <UserObject label="" lucidchartObjectId="Mr5fP6FgwxgQ" id="xrCMUuAX0U-HE9B3E3C9-10">
          <mxCell style="html=1;jettySize=18;whiteSpace=wrap;fontSize=13;strokeColor=#5E5E5E;strokeWidth=1.5;rounded=1;arcSize=12;edgeStyle=orthogonalEdgeStyle;startArrow=none;;endArrow=block;endFill=1;;exitX=0.994;exitY=0.504;exitPerimeter=0;entryX=0.089;entryY=0.5;entryPerimeter=0;" edge="1" parent="1" source="xrCMUuAX0U-HE9B3E3C9-8" target="xrCMUuAX0U-HE9B3E3C9-12">
            <mxGeometry width="100" height="100" relative="1" as="geometry">
              <Array as="points" />
            </mxGeometry>
          </mxCell>
        </UserObject>
        <mxCell id="xrCMUuAX0U-HE9B3E3C9-11" value="Wrong Input" style="text;html=1;resizable=0;labelBackgroundColor=#ffffff;align=center;verticalAlign=middle;fontStyle=1;fontColor=#333333;;fontSize=18.3;" vertex="1" parent="xrCMUuAX0U-HE9B3E3C9-10">
          <mxGeometry x="-0.21098628991661816" relative="1" as="geometry" />
        </mxCell>
        <mxCell id="xrCMUuAX0U-HE9B3E3C9-75" style="edgeStyle=orthogonalEdgeStyle;rounded=0;orthogonalLoop=1;jettySize=auto;html=1;exitX=0.5;exitY=0;exitDx=0;exitDy=0;" edge="1" parent="1" source="xrCMUuAX0U-HE9B3E3C9-12">
          <mxGeometry relative="1" as="geometry">
            <mxPoint x="480" y="360" as="targetPoint" />
            <Array as="points">
              <mxPoint x="823" y="360" />
            </Array>
          </mxGeometry>
        </mxCell>
        <UserObject label="Print Error Message&#xa;+&#xa;Re-input" lucidchartObjectId="7r5fq8ggOhDB" id="xrCMUuAX0U-HE9B3E3C9-12">
          <mxCell style="html=1;overflow=block;blockSpacing=1;whiteSpace=wrap;shape=parallelogram;perimeter=parallelogramPerimeter;anchorPointDirection=0;whiteSpace=wrap;fontSize=21.7;fontFamily=Liberation Serif;fontColor=#333333;fontStyle=1;spacing=3.8;strokeColor=#5e5e5e;strokeOpacity=100;rounded=1;absoluteArcSize=1;arcSize=9;strokeWidth=2.3;" vertex="1" parent="1">
            <mxGeometry x="740" y="465" width="166" height="120" as="geometry" />
          </mxCell>
        </UserObject>
        <UserObject label="&lt;blockquote style=&quot;margin: 0 0 0 40px ; border: none ; padding: 0px&quot;&gt;Input 2D Shape:&lt;br&gt;1) Rectangle&lt;br&gt;2) Square&lt;br&gt;3) Circle&lt;/blockquote&gt;" lucidchartObjectId="vy5frJKEllV-" id="xrCMUuAX0U-HE9B3E3C9-14">
          <mxCell style="html=1;overflow=block;blockSpacing=1;whiteSpace=wrap;shape=parallelogram;perimeter=parallelogramPerimeter;anchorPointDirection=0;whiteSpace=wrap;fontSize=21.7;fontFamily=Liberation Serif;fontColor=#333333;fontStyle=1;align=left;spacing=3.8;verticalAlign=middle;strokeColor=#5e5e5e;strokeOpacity=100;rounded=1;absoluteArcSize=1;arcSize=9;strokeWidth=2.3;" vertex="1" parent="1">
            <mxGeometry x="180" y="775" width="230" height="170" as="geometry" />
          </mxCell>
        </UserObject>
        <UserObject label="" lucidchartObjectId="Sz5fnYuEr-4i" id="xrCMUuAX0U-HE9B3E3C9-15">
          <mxCell style="html=1;jettySize=18;whiteSpace=wrap;fontSize=13;strokeColor=#5E5E5E;strokeWidth=1.5;rounded=1;arcSize=12;edgeStyle=orthogonalEdgeStyle;startArrow=none;;endArrow=block;endFill=1;;exitX=0.5;exitY=1.013;exitPerimeter=0;entryX=0.509;entryY=-0.01;entryPerimeter=0;" edge="1" parent="1" source="xrCMUuAX0U-HE9B3E3C9-4" target="xrCMUuAX0U-HE9B3E3C9-7">
            <mxGeometry width="100" height="100" relative="1" as="geometry">
              <Array as="points">
                <mxPoint x="480" y="389" />
              </Array>
            </mxGeometry>
          </mxCell>
        </UserObject>
        <UserObject label="&lt;blockquote style=&quot;margin: 0 0 0 40px ; border: none ; padding: 0px&quot;&gt;Input 3D Shape:&lt;br&gt;1) Cuboid&lt;br&gt;2) Cube&lt;br&gt;3) Sphere&lt;br&gt;4) Cone&lt;/blockquote&gt;" lucidchartObjectId="1z5f0OeKkEO4" id="xrCMUuAX0U-HE9B3E3C9-16">
          <mxCell style="html=1;overflow=block;blockSpacing=1;whiteSpace=wrap;shape=parallelogram;perimeter=parallelogramPerimeter;anchorPointDirection=0;whiteSpace=wrap;fontSize=21.7;fontFamily=Liberation Serif;fontColor=#333333;fontStyle=1;align=left;spacing=3.8;verticalAlign=middle;strokeColor=#5e5e5e;strokeOpacity=100;rounded=1;absoluteArcSize=1;arcSize=9;strokeWidth=2.3;" vertex="1" parent="1">
            <mxGeometry x="539" y="777.5" width="230" height="165" as="geometry" />
          </mxCell>
        </UserObject>
        <UserObject label="" lucidchartObjectId="CA5fl1OGlUrJ" id="xrCMUuAX0U-HE9B3E3C9-17">
          <mxCell style="html=1;jettySize=18;whiteSpace=wrap;fontSize=13;strokeColor=#5E5E5E;strokeWidth=1.5;rounded=1;arcSize=12;edgeStyle=orthogonalEdgeStyle;startArrow=none;;endArrow=block;endFill=1;;exitX=0.5;exitY=0.999;exitPerimeter=0;entryX=0.545;entryY=-0.006;entryPerimeter=0;" edge="1" parent="1" source="xrCMUuAX0U-HE9B3E3C9-8" target="xrCMUuAX0U-HE9B3E3C9-14">
            <mxGeometry width="100" height="100" relative="1" as="geometry">
              <Array as="points" />
            </mxGeometry>
          </mxCell>
        </UserObject>
        <UserObject label="" lucidchartObjectId="JA5fWTxtqYiY" id="xrCMUuAX0U-HE9B3E3C9-18">
          <mxCell style="html=1;jettySize=18;whiteSpace=wrap;fontSize=13;strokeColor=#5E5E5E;strokeWidth=1.5;rounded=1;arcSize=12;edgeStyle=orthogonalEdgeStyle;startArrow=none;;endArrow=block;endFill=1;;exitX=0.5;exitY=0.999;exitPerimeter=0;entryX=0.504;entryY=-0.007;entryPerimeter=0;" edge="1" parent="1" source="xrCMUuAX0U-HE9B3E3C9-8" target="xrCMUuAX0U-HE9B3E3C9-16">
            <mxGeometry width="100" height="100" relative="1" as="geometry">
              <Array as="points" />
            </mxGeometry>
          </mxCell>
        </UserObject>
        <UserObject label="" lucidchartObjectId="xC5fhrha.z2J" id="xrCMUuAX0U-HE9B3E3C9-20">
          <mxCell style="html=1;jettySize=18;whiteSpace=wrap;fontSize=13;strokeColor=#5E5E5E;strokeWidth=1.5;rounded=1;arcSize=12;edgeStyle=orthogonalEdgeStyle;startArrow=none;;endArrow=block;endFill=1;;exitX=0.455;exitY=1.006;exitPerimeter=0;entryX=0.203;entryY=0.281;entryPerimeter=0;" edge="1" parent="1" source="xrCMUuAX0U-HE9B3E3C9-14" target="xrCMUuAX0U-HE9B3E3C9-19">
            <mxGeometry width="100" height="100" relative="1" as="geometry">
              <Array as="points" />
            </mxGeometry>
          </mxCell>
        </UserObject>
        <UserObject label="" lucidchartObjectId="zC5fNO6wA.~Z" id="xrCMUuAX0U-HE9B3E3C9-21">
          <mxCell style="html=1;jettySize=18;whiteSpace=wrap;fontSize=13;strokeColor=#5E5E5E;strokeWidth=1.5;rounded=1;arcSize=12;edgeStyle=orthogonalEdgeStyle;startArrow=none;;endArrow=block;endFill=1;;exitX=0.496;exitY=1.007;exitPerimeter=0;entryX=0.77;entryY=0.254;entryPerimeter=0;" edge="1" parent="1" source="xrCMUuAX0U-HE9B3E3C9-16" target="xrCMUuAX0U-HE9B3E3C9-19">
            <mxGeometry width="100" height="100" relative="1" as="geometry">
              <Array as="points">
                <mxPoint x="653" y="970" />
                <mxPoint x="502" y="970" />
              </Array>
            </mxGeometry>
          </mxCell>
        </UserObject>
        <mxCell id="xrCMUuAX0U-HE9B3E3C9-85" style="edgeStyle=orthogonalEdgeStyle;rounded=0;orthogonalLoop=1;jettySize=auto;html=1;exitX=0.5;exitY=0;exitDx=0;exitDy=0;" edge="1" parent="1" source="xrCMUuAX0U-HE9B3E3C9-22">
          <mxGeometry relative="1" as="geometry">
            <mxPoint x="480" y="720" as="targetPoint" />
            <Array as="points">
              <mxPoint x="906" y="720" />
            </Array>
          </mxGeometry>
        </mxCell>
        <UserObject label="Print Error Message&#xa;+&#xa;Re-input" lucidchartObjectId="~C5fOorz6Ydm" id="xrCMUuAX0U-HE9B3E3C9-22">
          <mxCell style="html=1;overflow=block;blockSpacing=1;whiteSpace=wrap;shape=parallelogram;perimeter=parallelogramPerimeter;anchorPointDirection=0;whiteSpace=wrap;fontSize=21.7;fontFamily=Liberation Serif;fontColor=#333333;fontStyle=1;spacing=3.8;strokeColor=#5e5e5e;strokeOpacity=100;rounded=1;absoluteArcSize=1;arcSize=9;strokeWidth=2.3;" vertex="1" parent="1">
            <mxGeometry x="810" y="777.5" width="158" height="135" as="geometry" />
          </mxCell>
        </UserObject>
        <UserObject label="" lucidchartObjectId="fD5f4LsjA2M9" id="xrCMUuAX0U-HE9B3E3C9-23">
          <mxCell style="html=1;jettySize=18;whiteSpace=wrap;fontSize=13;strokeColor=#5E5E5E;strokeWidth=1.5;rounded=1;arcSize=12;edgeStyle=orthogonalEdgeStyle;startArrow=none;;endArrow=block;endFill=1;;exitX=0.991;exitY=0.5;exitPerimeter=0;entryX=0.107;entryY=0.5;entryPerimeter=0;" edge="1" parent="1" source="xrCMUuAX0U-HE9B3E3C9-19" target="xrCMUuAX0U-HE9B3E3C9-22">
            <mxGeometry width="100" height="100" relative="1" as="geometry">
              <Array as="points">
                <mxPoint x="780" y="1005" />
                <mxPoint x="780" y="845" />
              </Array>
            </mxGeometry>
          </mxCell>
        </UserObject>
        <mxCell id="xrCMUuAX0U-HE9B3E3C9-24" value="Wrong Input" style="text;html=1;resizable=0;labelBackgroundColor=#ffffff;align=center;verticalAlign=middle;fontStyle=1;fontColor=#333333;;fontSize=18.3;" vertex="1" parent="xrCMUuAX0U-HE9B3E3C9-23">
          <mxGeometry relative="1" as="geometry">
            <mxPoint x="-106" as="offset" />
          </mxGeometry>
        </mxCell>
        <UserObject label="&lt;blockquote style=&quot;margin: 0 0 0 40px ; border: none ; padding: 0px&quot;&gt;Input Unit:&lt;br&gt;1)m&lt;br&gt;2)dm&lt;br&gt;3)cm&lt;br&gt;4)mm &lt;/blockquote&gt;" lucidchartObjectId="4D5fDmPenOUp" id="xrCMUuAX0U-HE9B3E3C9-26">
          <mxCell style="html=1;overflow=block;blockSpacing=1;whiteSpace=wrap;shape=parallelogram;perimeter=parallelogramPerimeter;anchorPointDirection=0;whiteSpace=wrap;fontSize=21.7;fontFamily=Liberation Serif;fontColor=#333333;fontStyle=1;align=left;spacing=3.8;verticalAlign=middle;strokeColor=#5e5e5e;strokeOpacity=100;rounded=1;absoluteArcSize=1;arcSize=9;strokeWidth=2.3;" vertex="1" parent="1">
            <mxGeometry x="374" y="1120" width="192" height="139" as="geometry" />
          </mxCell>
        </UserObject>
        <UserObject label="Unit Decision" lucidchartObjectId="PH5f2gU5evYO" id="xrCMUuAX0U-HE9B3E3C9-28">
          <mxCell style="html=1;overflow=block;blockSpacing=1;whiteSpace=wrap;rhombus;whiteSpace=wrap;fontSize=21.7;fontFamily=Liberation Serif;fontColor=#333333;fontStyle=1;spacing=3.8;strokeColor=#5e5e5e;strokeOpacity=100;rounded=1;absoluteArcSize=1;arcSize=9;strokeWidth=2.3;" vertex="1" parent="1">
            <mxGeometry x="419" y="1290" width="120" height="90" as="geometry" />
          </mxCell>
        </UserObject>
        <UserObject label="" lucidchartObjectId="WH5ftkBfhMtk" id="xrCMUuAX0U-HE9B3E3C9-29">
          <mxCell style="html=1;jettySize=18;whiteSpace=wrap;fontSize=13;strokeColor=#5E5E5E;strokeWidth=1.5;rounded=1;arcSize=12;edgeStyle=orthogonalEdgeStyle;startArrow=none;;endArrow=block;endFill=1;;exitX=0.542;exitY=1.008;exitPerimeter=0;entryX=0.5;entryY=0.006;entryPerimeter=0;" edge="1" parent="1" source="xrCMUuAX0U-HE9B3E3C9-26" target="xrCMUuAX0U-HE9B3E3C9-28">
            <mxGeometry width="100" height="100" relative="1" as="geometry">
              <Array as="points" />
            </mxGeometry>
          </mxCell>
        </UserObject>
        <mxCell id="xrCMUuAX0U-HE9B3E3C9-87" style="edgeStyle=orthogonalEdgeStyle;rounded=0;orthogonalLoop=1;jettySize=auto;html=1;exitX=0.5;exitY=0;exitDx=0;exitDy=0;" edge="1" parent="1" source="xrCMUuAX0U-HE9B3E3C9-30">
          <mxGeometry relative="1" as="geometry">
            <mxPoint x="470" y="1090" as="targetPoint" />
            <Array as="points">
              <mxPoint x="863" y="1090" />
            </Array>
          </mxGeometry>
        </mxCell>
        <UserObject label="Print Error Message&#xa;+&#xa;Re-input" lucidchartObjectId="_H5fm.wZXNB6" id="xrCMUuAX0U-HE9B3E3C9-30">
          <mxCell style="html=1;overflow=block;blockSpacing=1;whiteSpace=wrap;shape=parallelogram;perimeter=parallelogramPerimeter;anchorPointDirection=0;whiteSpace=wrap;fontSize=21.7;fontFamily=Liberation Serif;fontColor=#333333;fontStyle=1;spacing=3.8;strokeColor=#5e5e5e;strokeOpacity=100;rounded=1;absoluteArcSize=1;arcSize=9;strokeWidth=2.3;" vertex="1" parent="1">
            <mxGeometry x="784" y="1130" width="158" height="139" as="geometry" />
          </mxCell>
        </UserObject>
        <UserObject label="Wrong Input" lucidchartObjectId="eI5fg3WwWF5i" id="xrCMUuAX0U-HE9B3E3C9-31">
          <mxCell style="html=1;jettySize=18;whiteSpace=wrap;fontSize=18.3;fontFamily=Helvetica;fontColor=#333333;fontStyle=1;strokeColor=#5E5E5E;strokeWidth=1.5;rounded=1;arcSize=12;edgeStyle=orthogonalEdgeStyle;startArrow=none;;endArrow=block;endFill=1;;exitX=0.991;exitY=0.5;exitPerimeter=0;entryX=0.11;entryY=0.5;entryPerimeter=0;" edge="1" parent="1" source="xrCMUuAX0U-HE9B3E3C9-28" target="xrCMUuAX0U-HE9B3E3C9-30">
            <mxGeometry x="0.0381" width="100" height="100" relative="1" as="geometry">
              <Array as="points">
                <mxPoint x="700" y="1335" />
                <mxPoint x="700" y="1200" />
              </Array>
              <mxPoint as="offset" />
            </mxGeometry>
          </mxCell>
        </UserObject>
        <UserObject label="Input Parameters" lucidchartObjectId="RI5fBLg-GhKg" id="xrCMUuAX0U-HE9B3E3C9-33">
          <mxCell style="html=1;overflow=block;blockSpacing=1;whiteSpace=wrap;shape=parallelogram;perimeter=parallelogramPerimeter;anchorPointDirection=0;whiteSpace=wrap;fontSize=18.3;fontFamily=Liberation Serif;fontColor=#333333;fontStyle=1;spacing=3.8;strokeColor=#5e5e5e;strokeOpacity=100;rounded=1;absoluteArcSize=1;arcSize=9;strokeWidth=2.3;" vertex="1" parent="1">
            <mxGeometry x="421.5" y="1410" width="120" height="90" as="geometry" />
          </mxCell>
        </UserObject>
        <UserObject label="" lucidchartObjectId="6I5f-a8JKSxX" id="xrCMUuAX0U-HE9B3E3C9-34">
          <mxCell style="html=1;jettySize=18;whiteSpace=wrap;fontSize=13;strokeColor=#5E5E5E;strokeWidth=1.5;rounded=1;arcSize=12;edgeStyle=orthogonalEdgeStyle;startArrow=none;;endArrow=block;endFill=1;;exitX=0.5;exitY=0.994;exitPerimeter=0;entryX=0.5;entryY=-0.012;entryPerimeter=0;" edge="1" parent="1" source="xrCMUuAX0U-HE9B3E3C9-28" target="xrCMUuAX0U-HE9B3E3C9-33">
            <mxGeometry width="100" height="100" relative="1" as="geometry">
              <Array as="points" />
            </mxGeometry>
          </mxCell>
        </UserObject>
        <UserObject label="Parameters Decision" lucidchartObjectId="nJ5fkvSnHmwi" id="xrCMUuAX0U-HE9B3E3C9-35">
          <mxCell style="html=1;overflow=block;blockSpacing=1;whiteSpace=wrap;rhombus;whiteSpace=wrap;fontSize=21.7;fontFamily=Liberation Serif;fontColor=#333333;fontStyle=1;spacing=3.8;strokeColor=#5e5e5e;strokeOpacity=100;rounded=1;absoluteArcSize=1;arcSize=9;strokeWidth=2.3;" vertex="1" parent="1">
            <mxGeometry x="415.75" y="1530" width="131.5" height="100" as="geometry" />
          </mxCell>
        </UserObject>
        <UserObject label="Print Error Message&#xa;+&#xa;Re-input" lucidchartObjectId="EJ5fNvMj9TCA" id="xrCMUuAX0U-HE9B3E3C9-36">
          <mxCell style="html=1;overflow=block;blockSpacing=1;whiteSpace=wrap;shape=parallelogram;perimeter=parallelogramPerimeter;anchorPointDirection=0;whiteSpace=wrap;fontSize=21.7;fontFamily=Liberation Serif;fontColor=#333333;fontStyle=1;spacing=3.8;strokeColor=#5e5e5e;strokeOpacity=100;rounded=1;absoluteArcSize=1;arcSize=9;strokeWidth=2.3;" vertex="1" parent="1">
            <mxGeometry x="730" y="1410" width="165" height="135" as="geometry" />
          </mxCell>
        </UserObject>
        <UserObject label="" lucidchartObjectId="OJ5fyjQla1ed" id="xrCMUuAX0U-HE9B3E3C9-37">
          <mxCell style="html=1;jettySize=18;whiteSpace=wrap;fontSize=13;strokeColor=#5E5E5E;strokeWidth=1.5;rounded=1;arcSize=12;edgeStyle=orthogonalEdgeStyle;startArrow=none;;endArrow=block;endFill=1;;exitX=0.5;exitY=1.013;exitPerimeter=0;entryX=0.5;entryY=0.006;entryPerimeter=0;" edge="1" parent="1" source="xrCMUuAX0U-HE9B3E3C9-33" target="xrCMUuAX0U-HE9B3E3C9-35">
            <mxGeometry width="100" height="100" relative="1" as="geometry">
              <Array as="points" />
            </mxGeometry>
          </mxCell>
        </UserObject>
        <UserObject label="" lucidchartObjectId="1J5f4uK87A0X" id="xrCMUuAX0U-HE9B3E3C9-38">
          <mxCell style="html=1;jettySize=18;whiteSpace=wrap;fontSize=13;strokeColor=#5E5E5E;strokeWidth=1.5;rounded=1;arcSize=12;edgeStyle=orthogonalEdgeStyle;startArrow=none;;endArrow=block;endFill=1;;exitX=0.5;exitY=-0.008;exitPerimeter=0;" edge="1" parent="1" source="xrCMUuAX0U-HE9B3E3C9-36">
            <mxGeometry width="100" height="100" relative="1" as="geometry">
              <Array as="points">
                <mxPoint x="810" y="1409" />
                <mxPoint x="810" y="1390" />
                <mxPoint x="515" y="1390" />
              </Array>
              <mxPoint x="480" y="1390" as="targetPoint" />
            </mxGeometry>
          </mxCell>
        </UserObject>
        <UserObject label="" lucidchartObjectId="_J5fzFXr6DmU" id="xrCMUuAX0U-HE9B3E3C9-39">
          <mxCell style="html=1;jettySize=18;whiteSpace=wrap;fontSize=18.3;fontFamily=Liberation Serif;fontColor=#333333;fontStyle=1;strokeColor=#5E5E5E;strokeWidth=1.5;rounded=1;arcSize=12;edgeStyle=orthogonalEdgeStyle;startArrow=none;;endArrow=block;endFill=1;;exitX=0.991;exitY=0.5;exitPerimeter=0;entryX=0.102;entryY=0.5;entryPerimeter=0;" edge="1" parent="1" source="xrCMUuAX0U-HE9B3E3C9-35" target="xrCMUuAX0U-HE9B3E3C9-36">
            <mxGeometry width="100" height="100" relative="1" as="geometry">
              <Array as="points" />
            </mxGeometry>
          </mxCell>
        </UserObject>
        <mxCell id="xrCMUuAX0U-HE9B3E3C9-40" value="Wrong Input" style="text;html=1;resizable=0;labelBackgroundColor=#ffffff;align=center;verticalAlign=middle;fontStyle=1;fontColor=#333333;;fontSize=18.3;" vertex="1" parent="xrCMUuAX0U-HE9B3E3C9-39">
          <mxGeometry relative="1" as="geometry" />
        </mxCell>
        <UserObject label="Calculations" lucidchartObjectId="AK5fhkReS171" id="xrCMUuAX0U-HE9B3E3C9-41">
          <mxCell style="html=1;overflow=block;blockSpacing=1;whiteSpace=wrap;;whiteSpace=wrap;fontSize=21.7;fontFamily=Liberation Serif;fontColor=#333333;fontStyle=1;spacing=9;strokeColor=#5e5e5e;strokeOpacity=100;rounded=1;absoluteArcSize=1;arcSize=9;strokeWidth=2.3;" vertex="1" parent="1">
            <mxGeometry x="421.5" y="1650" width="120" height="90" as="geometry" />
          </mxCell>
        </UserObject>
        <UserObject label="" lucidchartObjectId="PL5fUp46htAI" id="xrCMUuAX0U-HE9B3E3C9-42">
          <mxCell style="html=1;jettySize=18;whiteSpace=wrap;fontSize=13;strokeColor=#5E5E5E;strokeWidth=1.5;rounded=1;arcSize=12;edgeStyle=orthogonalEdgeStyle;startArrow=none;;endArrow=block;endFill=1;;exitX=0.5;exitY=0.994;exitPerimeter=0;entryX=0.5;entryY=-0.012;entryPerimeter=0;" edge="1" parent="1" source="xrCMUuAX0U-HE9B3E3C9-35" target="xrCMUuAX0U-HE9B3E3C9-41">
            <mxGeometry width="100" height="100" relative="1" as="geometry">
              <Array as="points" />
            </mxGeometry>
          </mxCell>
        </UserObject>
        <UserObject label="" lucidchartObjectId="fM5fpDPvMoBs" id="xrCMUuAX0U-HE9B3E3C9-44">
          <mxCell style="html=1;jettySize=18;whiteSpace=wrap;fontSize=13;strokeColor=#5E5E5E;strokeWidth=1.5;rounded=1;arcSize=12;edgeStyle=orthogonalEdgeStyle;startArrow=none;;endArrow=block;endFill=1;;exitX=0.5;exitY=1.013;exitPerimeter=0;entryX=0.486;entryY=-0.012;entryPerimeter=0;" edge="1" parent="1" source="xrCMUuAX0U-HE9B3E3C9-41" target="xrCMUuAX0U-HE9B3E3C9-43">
            <mxGeometry width="100" height="100" relative="1" as="geometry">
              <Array as="points" />
            </mxGeometry>
          </mxCell>
        </UserObject>
        <mxCell id="xrCMUuAX0U-HE9B3E3C9-106" style="edgeStyle=orthogonalEdgeStyle;rounded=0;orthogonalLoop=1;jettySize=auto;html=1;exitX=0;exitY=1;exitDx=0;exitDy=0;fontFamily=Helvetica;fontSize=18.3;startArrow=none;startFill=0;endArrow=classic;endFill=1;" edge="1" parent="1" source="xrCMUuAX0U-HE9B3E3C9-45">
          <mxGeometry relative="1" as="geometry">
            <mxPoint x="480" y="340" as="targetPoint" />
            <Array as="points">
              <mxPoint x="444" y="2130" />
              <mxPoint x="40" y="2130" />
              <mxPoint x="40" y="340" />
            </Array>
          </mxGeometry>
        </mxCell>
        <mxCell id="xrCMUuAX0U-HE9B3E3C9-108" value="&lt;b&gt;Calculate&lt;/b&gt;" style="edgeLabel;html=1;align=center;verticalAlign=middle;resizable=0;points=[];fontSize=18.3;fontFamily=Helvetica;" vertex="1" connectable="0" parent="xrCMUuAX0U-HE9B3E3C9-106">
          <mxGeometry x="-0.7902" y="-2" relative="1" as="geometry">
            <mxPoint as="offset" />
          </mxGeometry>
        </mxCell>
        <UserObject label="Process Selection" lucidchartObjectId="6O5fi.cqhD7Y" id="xrCMUuAX0U-HE9B3E3C9-45">
          <mxCell style="html=1;overflow=block;blockSpacing=1;whiteSpace=wrap;rhombus;whiteSpace=wrap;fontSize=21.7;fontFamily=Liberation Serif;fontColor=#333333;fontStyle=1;spacing=3.8;strokeColor=#5e5e5e;strokeOpacity=100;rounded=1;absoluteArcSize=1;arcSize=9;strokeWidth=2.3;" vertex="1" parent="1">
            <mxGeometry x="413" y="2040" width="126" height="100" as="geometry" />
          </mxCell>
        </UserObject>
        <UserObject label="Stop" lucidchartObjectId="tP5fY5uQ17O4" id="xrCMUuAX0U-HE9B3E3C9-46">
          <mxCell style="html=1;overflow=block;blockSpacing=1;whiteSpace=wrap;rounded=1;arcSize=50;whiteSpace=wrap;fontSize=21.7;fontFamily=Liberation Serif;fontColor=#333333;fontStyle=1;spacing=3.8;strokeColor=#5e5e5e;strokeOpacity=100;strokeWidth=2.3;" vertex="1" parent="1">
            <mxGeometry x="414" y="2235" width="120" height="60" as="geometry" />
          </mxCell>
        </UserObject>
        <UserObject label="" lucidchartObjectId="zP5fJCGafh0r" id="xrCMUuAX0U-HE9B3E3C9-47">
          <mxCell style="html=1;jettySize=18;whiteSpace=wrap;fontSize=18.3;fontFamily=Liberation Serif;fontColor=#333333;fontStyle=1;strokeColor=#5E5E5E;strokeWidth=1.5;rounded=1;arcSize=12;edgeStyle=orthogonalEdgeStyle;startArrow=none;;endArrow=block;endFill=1;;exitX=0.5;exitY=0.994;exitPerimeter=0;entryX=0.5;entryY=-0.019;entryPerimeter=0;" edge="1" parent="1" source="xrCMUuAX0U-HE9B3E3C9-45" target="xrCMUuAX0U-HE9B3E3C9-46">
            <mxGeometry width="100" height="100" relative="1" as="geometry">
              <Array as="points" />
            </mxGeometry>
          </mxCell>
        </UserObject>
        <mxCell id="xrCMUuAX0U-HE9B3E3C9-48" value="Exit Program" style="text;html=1;resizable=0;labelBackgroundColor=#ffffff;align=center;verticalAlign=middle;fontStyle=1;fontColor=#333333;;fontSize=18.3;" vertex="1" parent="xrCMUuAX0U-HE9B3E3C9-47">
          <mxGeometry relative="1" as="geometry" />
        </mxCell>
        <mxCell id="xrCMUuAX0U-HE9B3E3C9-83" style="edgeStyle=orthogonalEdgeStyle;rounded=0;orthogonalLoop=1;jettySize=auto;html=1;exitX=0.5;exitY=1;exitDx=0;exitDy=0;entryX=0.5;entryY=0;entryDx=0;entryDy=0;" edge="1" parent="1" source="xrCMUuAX0U-HE9B3E3C9-49" target="xrCMUuAX0U-HE9B3E3C9-45">
          <mxGeometry relative="1" as="geometry" />
        </mxCell>
        <UserObject label="&lt;blockquote style=&quot;margin: 0 0 0 40px ; border: none ; padding: 0px&quot;&gt;Input:&lt;br&gt;1) Show History&lt;br&gt;2) Calculate&lt;br&gt;3) Exit Program&lt;/blockquote&gt;" lucidchartObjectId="VP5fszP5y5od" id="xrCMUuAX0U-HE9B3E3C9-49">
          <mxCell style="html=1;overflow=block;blockSpacing=1;shape=parallelogram;perimeter=parallelogramPerimeter;anchorPointDirection=0;whiteSpace=wrap;fontSize=21.7;fontFamily=Liberation Serif;fontColor=#333333;fontStyle=1;align=left;spacing=3.8;verticalAlign=middle;strokeColor=#5e5e5e;strokeOpacity=100;rounded=1;absoluteArcSize=1;arcSize=9;strokeWidth=2.3;labelPosition=center;verticalLabelPosition=middle;" vertex="1" parent="1">
            <mxGeometry x="359.75" y="1920" width="244.5" height="105" as="geometry" />
          </mxCell>
        </UserObject>
        <mxCell id="xrCMUuAX0U-HE9B3E3C9-102" style="edgeStyle=orthogonalEdgeStyle;rounded=0;orthogonalLoop=1;jettySize=auto;html=1;exitX=1;exitY=0.5;exitDx=0;exitDy=0;fontFamily=Helvetica;fontSize=18.3;startArrow=none;startFill=0;endArrow=classic;endFill=1;" edge="1" parent="1" source="xrCMUuAX0U-HE9B3E3C9-55">
          <mxGeometry relative="1" as="geometry">
            <mxPoint x="480" y="1898.3333333333335" as="targetPoint" />
          </mxGeometry>
        </mxCell>
        <UserObject label="Print Error Message&#xa;+&#xa;Re-input" lucidchartObjectId="47pgOAl9rz31" id="xrCMUuAX0U-HE9B3E3C9-55">
          <mxCell style="html=1;overflow=block;blockSpacing=1;whiteSpace=wrap;shape=parallelogram;perimeter=parallelogramPerimeter;anchorPointDirection=0;whiteSpace=wrap;fontSize=21.7;fontFamily=Liberation Serif;fontColor=#333333;fontStyle=1;spacing=3.8;strokeColor=#5e5e5e;strokeOpacity=100;rounded=1;absoluteArcSize=1;arcSize=9;strokeWidth=2.3;" vertex="1" parent="1">
            <mxGeometry x="85" y="1830" width="165" height="135" as="geometry" />
          </mxCell>
        </UserObject>
        <UserObject label="" lucidchartObjectId="caqgBAhe3P-J" id="xrCMUuAX0U-HE9B3E3C9-58">
          <mxCell style="html=1;jettySize=18;whiteSpace=wrap;fontSize=18.3;fontFamily=Liberation Serif;fontColor=#333333;fontStyle=1;strokeColor=#5E5E5E;strokeWidth=1.5;rounded=1;arcSize=12;edgeStyle=orthogonalEdgeStyle;startArrow=none;;endArrow=block;endFill=1;;exitX=0.991;exitY=0.5;exitPerimeter=0;entryX=0.113;entryY=0.5;entryPerimeter=0;" edge="1" parent="1" source="xrCMUuAX0U-HE9B3E3C9-45" target="xrCMUuAX0U-HE9B3E3C9-60">
            <mxGeometry width="100" height="100" relative="1" as="geometry">
              <Array as="points">
                <mxPoint x="760" y="2095" />
                <mxPoint x="760" y="1883" />
              </Array>
            </mxGeometry>
          </mxCell>
        </UserObject>
        <mxCell id="xrCMUuAX0U-HE9B3E3C9-59" value="Show History" style="text;html=1;resizable=0;labelBackgroundColor=#ffffff;align=center;verticalAlign=middle;fontStyle=1;fontColor=#333333;;fontSize=18.3;" vertex="1" parent="xrCMUuAX0U-HE9B3E3C9-58">
          <mxGeometry relative="1" as="geometry" />
        </mxCell>
        <mxCell id="xrCMUuAX0U-HE9B3E3C9-93" style="edgeStyle=orthogonalEdgeStyle;rounded=0;orthogonalLoop=1;jettySize=auto;html=1;exitX=1;exitY=0.5;exitDx=0;exitDy=0;entryX=0;entryY=0.5;entryDx=0;entryDy=0;fontFamily=Helvetica;" edge="1" parent="1" source="xrCMUuAX0U-HE9B3E3C9-60" target="xrCMUuAX0U-HE9B3E3C9-61">
          <mxGeometry relative="1" as="geometry" />
        </mxCell>
        <UserObject label="&lt;blockquote style=&quot;margin: 0 0 0 40px ; border: none ; padding: 0px&quot;&gt;&lt;/blockquote&gt;&lt;blockquote style=&quot;margin: 0 0 0 40px ; border: none ; padding: 0px&quot;&gt;&lt;blockquote style=&quot;margin: 0 0 0 40px ; border: none ; padding: 0px&quot;&gt;&lt;span&gt;&lt;div style=&quot;text-align: left&quot;&gt;&lt;span&gt;Geometry Selection:&lt;/span&gt;&lt;/div&gt;&lt;/span&gt;&lt;/blockquote&gt;&lt;blockquote style=&quot;margin: 0 0 0 40px ; border: none ; padding: 0px&quot;&gt;&lt;span&gt;&lt;div style=&quot;text-align: left&quot;&gt;&lt;span&gt;1) Rectangle&lt;/span&gt;&lt;/div&gt;&lt;/span&gt;&lt;/blockquote&gt;&lt;blockquote style=&quot;margin: 0 0 0 40px ; border: none ; padding: 0px&quot;&gt;&lt;span&gt;&lt;div style=&quot;text-align: left&quot;&gt;&lt;span&gt;2) Square&lt;/span&gt;&lt;/div&gt;&lt;/span&gt;&lt;/blockquote&gt;&lt;blockquote style=&quot;margin: 0 0 0 40px ; border: none ; padding: 0px&quot;&gt;&lt;span&gt;&lt;div style=&quot;text-align: left&quot;&gt;&lt;span&gt;3) Circle&lt;/span&gt;&lt;/div&gt;&lt;/span&gt;&lt;/blockquote&gt;&lt;blockquote style=&quot;margin: 0 0 0 40px ; border: none ; padding: 0px&quot;&gt;&lt;span&gt;&lt;div style=&quot;text-align: left&quot;&gt;&lt;span&gt;4) Cuboid&lt;/span&gt;&lt;/div&gt;&lt;/span&gt;&lt;/blockquote&gt;&lt;blockquote style=&quot;margin: 0 0 0 40px ; border: none ; padding: 0px&quot;&gt;&lt;span&gt;&lt;div style=&quot;text-align: left&quot;&gt;&lt;span&gt;5) Cube&lt;/span&gt;&lt;/div&gt;&lt;/span&gt;&lt;/blockquote&gt;&lt;blockquote style=&quot;margin: 0 0 0 40px ; border: none ; padding: 0px&quot;&gt;&lt;span&gt;&lt;div style=&quot;text-align: left&quot;&gt;&lt;span&gt;6) Sphere&lt;/span&gt;&lt;/div&gt;&lt;/span&gt;&lt;/blockquote&gt;&lt;blockquote style=&quot;margin: 0 0 0 40px ; border: none ; padding: 0px&quot;&gt;&lt;div style=&quot;text-align: left&quot;&gt;&lt;span&gt;7) Cone&lt;/span&gt;&lt;/div&gt;&lt;/blockquote&gt;&lt;/blockquote&gt;&lt;blockquote style=&quot;margin: 0 0 0 40px ; border: none ; padding: 0px&quot;&gt;&lt;/blockquote&gt;&lt;blockquote style=&quot;margin: 0 0 0 40px ; border: none ; padding: 0px&quot;&gt;&lt;/blockquote&gt;&lt;blockquote style=&quot;margin: 0 0 0 40px ; border: none ; padding: 0px&quot;&gt;&lt;/blockquote&gt;&lt;blockquote style=&quot;margin: 0 0 0 40px ; border: none ; padding: 0px&quot;&gt;&lt;/blockquote&gt;&lt;blockquote style=&quot;margin: 0 0 0 40px ; border: none ; padding: 0px&quot;&gt;&lt;/blockquote&gt;&lt;blockquote style=&quot;margin: 0 0 0 40px ; border: none ; padding: 0px&quot;&gt;&lt;/blockquote&gt;" lucidchartObjectId="kbqgr26UQBu0" id="xrCMUuAX0U-HE9B3E3C9-60">
          <mxCell style="overflow=block;blockSpacing=1;shape=parallelogram;perimeter=parallelogramPerimeter;anchorPointDirection=0;fontSize=21.7;fontFamily=Liberation Serif;fontColor=#333333;fontStyle=1;align=center;spacing=3.8;verticalAlign=middle;strokeColor=#5e5e5e;strokeOpacity=100;rounded=1;absoluteArcSize=1;arcSize=9;strokeWidth=2.3;whiteSpace=wrap;html=1;horizontal=1;" vertex="1" parent="1">
            <mxGeometry x="820" y="1770" width="290" height="226" as="geometry" />
          </mxCell>
        </UserObject>
        <mxCell id="xrCMUuAX0U-HE9B3E3C9-98" value="Wrong Input" style="edgeStyle=orthogonalEdgeStyle;rounded=0;orthogonalLoop=1;jettySize=auto;html=1;exitX=0.5;exitY=1;exitDx=0;exitDy=0;entryX=0.671;entryY=0.017;entryDx=0;entryDy=0;entryPerimeter=0;fontFamily=Helvetica;startArrow=none;startFill=0;endArrow=classic;endFill=1;fontStyle=1;fontSize=18.3;" edge="1" parent="1" source="xrCMUuAX0U-HE9B3E3C9-61" target="xrCMUuAX0U-HE9B3E3C9-62">
          <mxGeometry relative="1" as="geometry" />
        </mxCell>
        <UserObject label="Geometry Selection" lucidchartObjectId="gcqgqmHBen7Y" id="xrCMUuAX0U-HE9B3E3C9-61">
          <mxCell style="html=1;overflow=block;blockSpacing=1;whiteSpace=wrap;rhombus;whiteSpace=wrap;fontSize=21.7;fontFamily=Liberation Serif;fontColor=#333333;fontStyle=1;spacing=3.8;strokeColor=#5e5e5e;strokeOpacity=100;rounded=1;absoluteArcSize=1;arcSize=9;strokeWidth=2.3;" vertex="1" parent="1">
            <mxGeometry x="1173" y="1830" width="135" height="104" as="geometry" />
          </mxCell>
        </UserObject>
        <mxCell id="xrCMUuAX0U-HE9B3E3C9-97" style="edgeStyle=orthogonalEdgeStyle;rounded=0;orthogonalLoop=1;jettySize=auto;html=1;exitX=0;exitY=0.75;exitDx=0;exitDy=0;fontFamily=Helvetica;startArrow=none;startFill=0;endArrow=classic;endFill=1;" edge="1" parent="1" source="xrCMUuAX0U-HE9B3E3C9-62">
          <mxGeometry relative="1" as="geometry">
            <mxPoint x="760" y="2080" as="targetPoint" />
          </mxGeometry>
        </mxCell>
        <UserObject label="Print Error Message&#xa;+&#xa;Re-input" lucidchartObjectId="gcqgyRtt~NtO" id="xrCMUuAX0U-HE9B3E3C9-62">
          <mxCell style="html=1;overflow=block;blockSpacing=1;whiteSpace=wrap;shape=parallelogram;perimeter=parallelogramPerimeter;anchorPointDirection=0;whiteSpace=wrap;fontSize=21.7;fontFamily=Liberation Serif;fontColor=#333333;fontStyle=1;spacing=3.8;strokeColor=#5e5e5e;strokeOpacity=100;rounded=1;absoluteArcSize=1;arcSize=9;strokeWidth=2.3;" vertex="1" parent="1">
            <mxGeometry x="1130" y="2060" width="165" height="135" as="geometry" />
          </mxCell>
        </UserObject>
        <UserObject label="" lucidchartObjectId="9cqgT_GrF1mz" id="xrCMUuAX0U-HE9B3E3C9-66">
          <mxCell style="html=1;jettySize=18;whiteSpace=wrap;fontSize=18.3;fontFamily=Liberation Serif;fontColor=#333333;fontStyle=1;strokeColor=#5E5E5E;strokeWidth=1.5;rounded=1;arcSize=12;edgeStyle=orthogonalEdgeStyle;startArrow=none;;endArrow=block;endFill=1;;exitX=0.009;exitY=0.5;exitPerimeter=0;entryX=0.402;entryY=1.01;entryDx=0;entryDy=0;entryPerimeter=0;" edge="1" parent="1" source="xrCMUuAX0U-HE9B3E3C9-45" target="xrCMUuAX0U-HE9B3E3C9-55">
            <mxGeometry width="100" height="100" relative="1" as="geometry">
              <Array as="points">
                <mxPoint x="151" y="2090" />
              </Array>
              <mxPoint x="190" y="2110" as="targetPoint" />
            </mxGeometry>
          </mxCell>
        </UserObject>
        <mxCell id="xrCMUuAX0U-HE9B3E3C9-67" value="Wrong Input" style="text;html=1;resizable=0;labelBackgroundColor=#ffffff;align=center;verticalAlign=middle;fontStyle=1;fontColor=#333333;;fontSize=18.3;" vertex="1" parent="xrCMUuAX0U-HE9B3E3C9-66">
          <mxGeometry relative="1" as="geometry" />
        </mxCell>
        <mxCell id="xrCMUuAX0U-HE9B3E3C9-94" style="edgeStyle=orthogonalEdgeStyle;rounded=0;orthogonalLoop=1;jettySize=auto;html=1;exitX=0.5;exitY=1;exitDx=0;exitDy=0;entryX=0.5;entryY=0;entryDx=0;entryDy=0;fontFamily=Helvetica;endArrow=none;endFill=0;startArrow=classic;startFill=1;" edge="1" parent="1" source="xrCMUuAX0U-HE9B3E3C9-70" target="xrCMUuAX0U-HE9B3E3C9-61">
          <mxGeometry relative="1" as="geometry" />
        </mxCell>
        <mxCell id="xrCMUuAX0U-HE9B3E3C9-101" style="edgeStyle=orthogonalEdgeStyle;rounded=0;orthogonalLoop=1;jettySize=auto;html=1;exitX=0;exitY=0.75;exitDx=0;exitDy=0;fontFamily=Helvetica;fontSize=18.3;startArrow=none;startFill=0;endArrow=classic;endFill=1;" edge="1" parent="1" source="xrCMUuAX0U-HE9B3E3C9-70">
          <mxGeometry relative="1" as="geometry">
            <mxPoint x="480" y="1900" as="targetPoint" />
            <Array as="points">
              <mxPoint x="660" y="1715" />
              <mxPoint x="660" y="1900" />
            </Array>
          </mxGeometry>
        </mxCell>
        <UserObject label="Display History" lucidchartObjectId="teqgX6eRFG04" id="xrCMUuAX0U-HE9B3E3C9-70">
          <mxCell style="html=1;overflow=block;blockSpacing=1;whiteSpace=wrap;shape=parallelogram;perimeter=parallelogramPerimeter;anchorPointDirection=0;whiteSpace=wrap;fontSize=21.7;fontFamily=Liberation Serif;fontColor=#333333;fontStyle=1;spacing=3.8;strokeColor=#5e5e5e;strokeOpacity=100;rounded=1;absoluteArcSize=1;arcSize=9;strokeWidth=2.3;" vertex="1" parent="1">
            <mxGeometry x="1172" y="1650" width="136" height="90" as="geometry" />
          </mxCell>
        </UserObject>
        <mxCell id="xrCMUuAX0U-HE9B3E3C9-78" style="edgeStyle=orthogonalEdgeStyle;rounded=0;orthogonalLoop=1;jettySize=auto;html=1;exitX=0.5;exitY=1;exitDx=0;exitDy=0;entryX=0.5;entryY=0;entryDx=0;entryDy=0;" edge="1" parent="1" source="xrCMUuAX0U-HE9B3E3C9-19" target="xrCMUuAX0U-HE9B3E3C9-26">
          <mxGeometry relative="1" as="geometry" />
        </mxCell>
        <mxCell id="xrCMUuAX0U-HE9B3E3C9-104" value="&lt;b&gt;Back&lt;/b&gt;" style="edgeStyle=orthogonalEdgeStyle;rounded=0;orthogonalLoop=1;jettySize=auto;html=1;exitX=0;exitY=0.5;exitDx=0;exitDy=0;fontFamily=Helvetica;fontSize=18.3;startArrow=none;startFill=0;endArrow=classic;endFill=1;" edge="1" parent="1" source="xrCMUuAX0U-HE9B3E3C9-19">
          <mxGeometry x="-0.4662" relative="1" as="geometry">
            <mxPoint x="480" y="380" as="targetPoint" />
            <Array as="points">
              <mxPoint x="90" y="1035" />
              <mxPoint x="90" y="380" />
              <mxPoint x="480" y="380" />
            </Array>
            <mxPoint as="offset" />
          </mxGeometry>
        </mxCell>
        <UserObject label="Shape Decision" lucidchartObjectId="sC5fgC04QuE8" id="xrCMUuAX0U-HE9B3E3C9-19">
          <mxCell style="html=1;overflow=block;blockSpacing=1;whiteSpace=wrap;rhombus;whiteSpace=wrap;fontSize=21.7;fontFamily=Liberation Serif;fontColor=#333333;fontStyle=1;spacing=3.8;strokeColor=#5e5e5e;strokeOpacity=100;rounded=1;absoluteArcSize=1;arcSize=9;strokeWidth=2.3;" vertex="1" parent="1">
            <mxGeometry x="410" y="990" width="120" height="90" as="geometry" />
          </mxCell>
        </UserObject>
        <mxCell id="xrCMUuAX0U-HE9B3E3C9-82" style="edgeStyle=orthogonalEdgeStyle;rounded=0;orthogonalLoop=1;jettySize=auto;html=1;exitX=0.5;exitY=1;exitDx=0;exitDy=0;" edge="1" parent="1" source="xrCMUuAX0U-HE9B3E3C9-43" target="xrCMUuAX0U-HE9B3E3C9-49">
          <mxGeometry relative="1" as="geometry" />
        </mxCell>
        <UserObject label="Display Calculation Result" lucidchartObjectId="9L5fDVS6E8vw" id="xrCMUuAX0U-HE9B3E3C9-43">
          <mxCell style="html=1;overflow=block;blockSpacing=1;whiteSpace=wrap;shape=parallelogram;perimeter=parallelogramPerimeter;anchorPointDirection=0;whiteSpace=wrap;fontSize=21.7;fontFamily=Liberation Serif;fontColor=#333333;fontStyle=1;spacing=3.8;strokeColor=#5e5e5e;strokeOpacity=100;rounded=1;absoluteArcSize=1;arcSize=9;strokeWidth=2.3;" vertex="1" parent="1">
            <mxGeometry x="414" y="1790" width="136" height="90" as="geometry" />
          </mxCell>
        </UserObject>
      </root>
    </mxGraphModel>
  </diagram>
</mxfile>
